# xmcd
#
# Track frame offsets:
#	150
#	26143
#	50571
#	76386
#	100259
#	127525
#	149334
#	168602
#	179122
#
# Disc length: 2446 seconds
#
# Revision: 1
# Processed by: cddbd v1.5.1PL2 Copyright (c) Steve Scherf et al.
# Submitted via: audiograbber 1.83.01
#
DISCID=7a098c09
DTITLE=Janne Olofsman - Sorti
DYEAR=1998
DGENRE=Visor
TTITLE0=Höstvisa
TTITLE1=Sorti
TTITLE2=Eugenias rejvdans
TTITLE3=DNA-karusellen
TTITLE4=Midsommarvals
TTITLE5=Cyniske vagabonden
TTITLE6=liten anspråkslös visa där F. Lindberg biktar sig...
TTITLE7=Julesang
TTITLE8=Outro
EXTD=
EXTT0=
EXTT1=
EXTT2=
EXTT3=
EXTT4=
EXTT5=
EXTT6=
EXTT7=
EXTT8=
PLAYORDER=
